<?xml version="1.0" standalone="no"?>
<!DOCTYPE svg PUBLIC "-//W3C//DTD SVG 20010904//EN"
 "http://www.w3.org/TR/2001/REC-SVG-20010904/DTD/svg10.dtd">
<svg version="1.0" xmlns="http://www.w3.org/2000/svg"
 width="338.000000pt" height="338.000000pt" viewBox="0 0 338.000000 338.000000"
 preserveAspectRatio="xMidYMid meet">
<metadata>
Created by potrace 1.10, written by Peter Selinger 2001-2011
</metadata>
<g transform="translate(0.000000,338.000000) scale(0.050000,-0.050000)"
fill="#ffffff" stroke="none">
<path d="M4350 5420 c7 -11 2 -20 -10 -20 -12 0 -16 -10 -9 -22 10 -16 19 -15
30 3 39 64 348 -204 439 -382 340 -666 51 -1151 -888 -1489 -224 -81 -266 -81
-103 -1 703 344 974 1021 506 1264 -88 45 -87 20 2 -39 162 -107 209 -333 110
-535 -184 -375 -732 -712 -1642 -1011 -657 -216 -851 -336 -969 -602 -44 -100
-77 -381 -38 -326 12 17 22 62 22 100 1 62 65 240 86 240 5 0 0 -47 -11 -105
-51 -278 68 -509 318 -616 50 -22 96 -58 106 -83 10 -26 19 -35 20 -22 0 15
15 20 36 12 56 -20 -119 115 -185 143 -266 111 -338 560 -129 797 144 164 338
240 1108 434 1234 311 1756 634 1824 1130 24 176 54 125 42 -72 -10 -169 -8
-182 16 -128 110 244 -51 863 -287 1106 -121 124 -447 310 -394 224z"/>
<path d="M4430 4806 c22 -6 65 -34 96 -63 37 -34 52 -41 44 -19 -17 44 -99 97
-144 94 -30 -2 -29 -4 4 -12z"/>
<path d="M3904 4666 c-38 -45 -70 -108 -78 -154 -8 -52 -24 -80 -49 -87 -21
-5 -43 -33 -51 -62 -117 -472 -550 -832 -1256 -1044 -343 -103 -460 -154 -617
-267 -145 -104 -286 -245 -266 -265 8 -8 27 4 43 27 109 155 468 345 860 454
576 161 969 438 1150 808 37 78 74 138 82 133 7 -5 19 12 26 36 9 34 16 39 29
18 32 -49 -89 -351 -157 -393 -11 -7 -20 -22 -20 -34 0 -107 211 279 243 444
19 100 28 119 37 80 9 -37 23 0 58 145 56 235 51 259 -34 161z"/>
<path d="M4744 3724 c-62 -68 -141 -197 -107 -176 12 8 50 54 84 103 106 154
155 99 129 -146 -30 -280 -122 -480 -302 -652 -54 -51 -86 -93 -71 -93 53 0
237 212 301 347 171 357 146 812 -34 617z"/>
<path d="M4685 3338 c2 -84 -8 -128 -44 -187 -29 -46 -37 -73 -21 -68 73 25
130 259 81 336 -12 19 -17 -8 -16 -81z"/>
<path d="M1529 2690 c-21 -38 -45 -70 -54 -70 -8 0 -15 -25 -14 -55 l0 -55 50
60 c27 33 49 71 49 85 0 14 9 25 19 25 11 0 14 -16 7 -35 -8 -24 -5 -29 10
-15 22 21 10 130 -15 130 -8 0 -32 -31 -52 -70z"/>
<path d="M2351 2565 c76 -451 230 -685 631 -955 l208 -140 140 0 c155 0 259
46 385 171 98 96 78 116 -23 23 -132 -122 -203 -152 -354 -153 -144 -1 -152 3
-521 273 -204 149 -353 408 -420 733 -27 132 -67 173 -46 48z"/>
<path d="M3153 2627 c-27 -28 -11 -47 39 -47 45 0 49 5 28 30 -27 33 -46 37
-67 17z"/>
<path d="M3445 2627 c-44 -18 -27 -47 27 -47 31 0 48 10 43 24 -9 28 -35 36
-70 23z"/>
<path d="M3080 2239 c-58 -24 -75 -37 -47 -38 23 -1 76 13 118 31 72 30 90 30
179 -1 39 -14 39 -14 1 17 -50 41 -137 38 -251 -9z"/>
<path d="M3460 2267 c17 -6 64 -23 105 -38 41 -16 75 -22 75 -13 0 20 -121 64
-171 62 -28 -1 -30 -4 -9 -11z"/>
<path d="M2098 2204 c11 -21 15 -44 8 -51 -20 -20 127 -73 203 -73 94 0 91 32
-4 49 -41 8 -109 36 -151 64 -66 43 -74 44 -56 11z"/>
<path d="M3510 2210 c56 -25 49 -27 -110 -28 -410 -1 -460 -4 -460 -22 0 -11
10 -20 22 -20 12 0 59 -31 105 -69 150 -122 318 -148 447 -69 82 51 74 74 -11
29 -67 -34 -273 -44 -253 -11 7 11 -2 14 -22 7 -20 -8 -43 -1 -56 17 -12 16
-49 44 -82 62 l-60 32 100 4 c223 9 420 -1 426 -21 12 -34 90 -23 144 19 l50
39 -80 1 c-44 1 -97 14 -119 31 -21 16 -53 28 -70 27 -17 -1 -4 -13 29 -28z"/>
<path d="M3251 1862 c-6 -10 29 -18 78 -17 49 1 85 9 79 18 -14 23 -143 22
-157 -1z"/>
<path d="M4034 1846 c-6 -9 -48 -155 -94 -325 -46 -171 -118 -400 -159 -510
-89 -235 -127 -394 -118 -489 13 -130 51 -91 61 62 7 102 38 228 102 416 136
399 271 949 208 846z"/>
<path d="M2100 1801 c0 -23 112 -48 140 -31 11 7 20 1 20 -12 0 -14 6 -19 13
-12 7 7 1 27 -13 44 -20 25 -30 26 -42 7 -12 -19 -27 -20 -67 -1 -28 13 -51
15 -51 5z"/>
<path d="M2428 1672 c-166 -52 -369 -240 -343 -317 5 -14 23 3 41 38 160 307
653 328 831 36 66 -109 98 -117 44 -11 -111 217 -351 323 -573 254z"/>
</g>
</svg>
